<svg width="40" height="41" viewBox="0 0 40 41" fill="none" xmlns="http://www.w3.org/2000/svg">
<path opacity="0.5" d="M39.4119 0.276981L29.7667 37.7542C29.7177 37.9243 29.5215 37.9753 29.4071 37.8563L22.9497 31.1366L27.7886 12.3554C27.8377 12.1853 27.6905 12.0322 27.5271 12.0832L9.47905 17.1188L3.05436 10.4331C2.93992 10.314 2.98896 10.1099 3.15244 10.0588L39.1504 0.00479076C39.3138 -0.029233 39.461 0.123874 39.4119 0.276981Z" fill="#00B37E"/>
<path opacity="0.5" d="M22.9493 31.1362L20.4645 40.833C20.4154 41.0031 20.2192 41.0542 20.1048 40.9351L0.0623666 20.0955C-0.0520683 19.9764 -0.00302504 19.7723 0.160453 19.7213L9.47872 17.1184L22.9493 31.1362Z" fill="#00B37E"/>
<path d="M27.7878 12.3551L22.9489 31.1362L9.47824 17.1184L27.5262 12.0829C27.6897 12.0319 27.8369 12.185 27.7878 12.3551Z" fill="#00B37E"/>
</svg>
